<?xml version="1.0" standalone="no"?><svg xmlns="http://www.w3.org/2000/svg" viewBox="0 0 1440 320"><path fill="#ffffff" fill-opacity="1" d="M0,160L24,138.7C48,117,96,75,144,69.3C192,64,240,96,288,96C336,96,384,64,432,85.3C480,107,528,181,576,208C624,235,672,213,720,192C768,171,816,149,864,138.7C912,128,960,128,1008,122.7C1056,117,1104,107,1152,128C1200,149,1248,203,1296,192C1344,181,1392,107,1416,69.3L1440,32L1440,320L1416,320C1392,320,1344,320,1296,320C1248,320,1200,320,1152,320C1104,320,1056,320,1008,320C960,320,912,320,864,320C816,320,768,320,720,320C672,320,624,320,576,320C528,320,480,320,432,320C384,320,336,320,288,320C240,320,192,320,144,320C96,320,48,320,24,320L0,320Z"></path></svg>