<?xml version="1.0" standalone="no"?><svg xmlns="http://www.w3.org/2000/svg" viewBox="0 0 1440 320"><path fill="#3d405b" fill-opacity="1" d="M0,192L34.3,165.3C68.6,139,137,85,206,90.7C274.3,96,343,160,411,208C480,256,549,288,617,261.3C685.7,235,754,149,823,128C891.4,107,960,149,1029,192C1097.1,235,1166,277,1234,272C1302.9,267,1371,213,1406,186.7L1440,160L1440,0L1405.7,0C1371.4,0,1303,0,1234,0C1165.7,0,1097,0,1029,0C960,0,891,0,823,0C754.3,0,686,0,617,0C548.6,0,480,0,411,0C342.9,0,274,0,206,0C137.1,0,69,0,34,0L0,0Z"></path></svg>